<svg width="111" height="132" viewBox="0 0 111 132" fill="none" xmlns="http://www.w3.org/2000/svg">
<path d="M37.673 7.9841C37.7025 -0.319081 48.799 -3.08574 52.7231 4.23168L66.2405 29.4376C67.9713 32.665 71.6726 34.3051 75.226 33.4191L100.666 27.0763C107.712 25.3194 113.266 33.1041 109.311 39.1952L91.1652 67.1427C89.5761 69.5901 89.4457 72.7085 90.8247 75.2801L107.137 105.698C110.909 112.731 103.187 120.345 96.2079 116.476L75.4731 104.98C71.7979 102.942 67.1726 104.095 64.8842 107.62L51.9735 127.504C47.6277 134.198 37.2354 131.1 37.2638 123.12L37.3865 88.6037C37.3968 85.6858 35.8176 82.9936 33.2656 81.5787L4.12325 65.4214C-2.2282 61.9 -0.979621 52.4193 6.06698 50.6624L31.5067 44.3196C35.0602 43.4336 37.5583 40.2478 37.5713 36.5856L37.673 7.9841Z" fill="#FFA2EB"/>
</svg>
